<svg width="67px" height="61px" viewBox="0 0 67 61" version="1.1" xmlns="http://www.w3.org/2000/svg" xmlns:xlink="http://www.w3.org/1999/xlink">
    <g id="Page-1" stroke="none" stroke-width="1" fill="none" fill-rule="evenodd">
        <path d="M52.8096263,24.5841501 L38.9087577,24.5841501 C37.8041882,24.5841501 36.9087577,23.6887196 36.9087577,22.5841501 L36.9087577,12.3929795 C36.9087577,11.28841 37.8041882,10.3929795 38.9087577,10.3929795 L64.9988047,10.3929795 C66.1033742,10.3929795 66.9988047,11.28841 66.9988047,12.3929795 L66.9988047,22.5841501 C66.9988047,23.6887196 66.1033742,24.5841501 64.9988047,24.5841501 L52.8096263,24.5841501 Z M26.4813195,22.7473659 L1.88548266,14.0458049 C0.844170021,13.6773912 0.298658175,12.5345931 0.667035226,11.4932675 L4.06601123,1.88548774 C4.43439027,0.844156538 5.57719372,0.298636767 6.61851985,0.66703015 C6.61852463,0.667031842 6.61852941,0.667033534 6.61852912,0.667049575 L31.2143659,9.36861064 C32.2556786,9.73702431 32.8011904,10.8798224 32.4328134,11.9211479 L29.0338374,21.5289278 C28.6654583,22.570259 27.5226549,23.1157787 26.4813287,22.7473853 C26.481324,22.7473836 26.4813192,22.747382 26.4813195,22.7473659 Z M47.1023189,42.4838234 L21.0102797,42.4838234 C19.9057102,42.4838234 19.0102797,41.5883929 19.0102797,40.4838234 L19.0102797,30.2918559 C19.0102797,29.1872864 19.9057102,28.2918559 21.0102797,28.2918559 L47.1023189,28.2918559 C48.2068884,28.2918559 49.1023189,29.1872864 49.1023189,30.2918559 L49.1023189,40.4838234 C49.1023189,41.5883929 48.2068884,42.4838234 47.1023189,42.4838234 Z M31.1986612,60.3834967 L5.10662204,60.3834967 C4.00205254,60.3834967 3.10662204,59.4880662 3.10662204,58.3834967 L3.10662204,48.1915292 C3.10662204,47.0869597 4.00205254,46.1915292 5.10662204,46.1915292 L31.1986612,46.1915292 C32.3032307,46.1915292 33.1986612,47.0869597 33.1986612,48.1915292 L33.1986612,58.3834967 C33.1986612,59.4880662 32.3032307,60.3834967 31.1986612,60.3834967 Z M65,60.3834967 L38.909953,60.3834967 C37.8053835,60.3834967 36.909953,59.4880662 36.909953,58.3834967 L36.909953,48.1915292 C36.909953,47.0869597 37.8053835,46.1915292 38.909953,46.1915292 L65,46.1915292 C66.1045695,46.1915292 67,47.0869597 67,48.1915292 L67,58.3834967 C67,59.4880662 66.1045695,60.3834967 65,60.3834967 Z M54.8096263,28.2914575 L65,28.2914575 C66.1045695,28.2914575 67,29.186888 67,30.2914575 L67,40.483425 C67,41.5879945 66.1045695,42.483425 65,42.483425 L54.8096263,42.483425 C53.7050568,42.483425 52.8096263,41.5879945 52.8096263,40.483425 L52.8096263,30.2914575 C52.8096263,29.186888 53.7050568,28.2914575 54.8096263,28.2914575 Z" id="Path-2" fill="#000000" fill-rule="nonzero"></path>
    </g>
</svg>