<?xml version="1.0" encoding="UTF-8"?>
<svg width="512px" height="512px" viewBox="0 0 512 512" version="1.1" xmlns="http://www.w3.org/2000/svg" xmlns:xlink="http://www.w3.org/1999/xlink">
    <title>Block Usage@1x</title>
    <defs>
        <linearGradient x1="50%" y1="0%" x2="50%" y2="100%" id="linearGradient-1">
            <stop stop-color="#FFFFFF" stop-opacity="0" offset="0%"></stop>
            <stop stop-color="#000000" stop-opacity="0.117242133" offset="100%"></stop>
        </linearGradient>
        <path d="M125.630375,-5.07561751e-15 L386.369625,5.07561751e-15 C430.054043,-2.94907994e-15 445.895069,4.54845495 461.865439,13.0895025 C477.83581,21.63055 490.36945,34.1641902 498.910498,50.1345605 C507.451545,66.1049309 512,81.9459565 512,125.630375 L512,386.369625 C512,430.054043 507.451545,445.895069 498.910498,461.865439 C490.36945,477.83581 477.83581,490.36945 461.865439,498.910498 C445.895069,507.451545 430.054043,512 386.369625,512 L125.630375,512 C81.9459565,512 66.1049309,507.451545 50.1345605,498.910498 C34.1641902,490.36945 21.63055,477.83581 13.0895025,461.865439 C4.54845495,445.895069 1.96605329e-15,430.054043 -3.38374501e-15,386.369625 L3.38374501e-15,125.630375 C-1.96605329e-15,81.9459565 4.54845495,66.1049309 13.0895025,50.1345605 C21.63055,34.1641902 34.1641902,21.63055 50.1345605,13.0895025 C66.1049309,4.54845495 81.9459565,2.94907994e-15 125.630375,-5.07561751e-15 Z" id="path-2"></path>
        <path d="M347.662073,217.679271 L280.718343,217.679271 C275.398963,217.679271 271.086754,213.369102 271.086754,208.052239 L271.086754,158.996875 C271.086754,153.680012 275.398963,149.369843 280.718343,149.369843 L406.362654,149.369843 C411.682034,149.369843 415.994244,153.680012 415.994244,158.996875 L415.994244,208.052239 C415.994244,213.369102 411.682034,217.679271 406.362654,217.679271 L347.662073,217.679271 Z M220.870352,208.83788 L102.42185,166.952777 C97.4071021,165.179412 94.7800291,159.678535 96.5540573,154.666097 L112.922828,108.418895 C114.696866,103.406431 120.200373,100.780563 125.215186,102.55383 C125.215209,102.553838 125.215232,102.553846 125.21523,102.553924 L243.663732,144.439027 C248.67848,146.212392 251.305553,151.713269 249.531525,156.725706 L233.162754,202.972909 C231.388716,207.985374 225.885209,210.611241 220.870396,208.837974 C220.870373,208.837966 220.87035,208.837958 220.870352,208.83788 Z M320.176852,303.839635 L194.522947,303.839635 C189.203567,303.839635 184.891358,299.529466 184.891358,294.212603 L184.891358,245.153404 C184.891358,239.836541 189.203567,235.526372 194.522947,235.526372 L320.176852,235.526372 C325.496232,235.526372 329.808442,239.836541 329.808442,245.153404 L329.808442,294.212603 C329.808442,299.529466 325.496232,303.839635 320.176852,303.839635 Z M243.588101,390 L117.934196,390 C112.614816,390 108.302607,385.689831 108.302607,380.372968 L108.302607,331.313769 C108.302607,325.996906 112.614816,321.686737 117.934196,321.686737 L243.588101,321.686737 C248.907481,321.686737 253.21969,325.996906 253.21969,331.313769 L253.21969,380.372968 C253.21969,385.689831 248.907481,390 243.588101,390 Z M406.368411,390 L280.724099,390 C275.404719,390 271.09251,385.689831 271.09251,380.372968 L271.09251,331.313769 C271.09251,325.996906 275.404719,321.686737 280.724099,321.686737 L406.368411,321.686737 C411.687791,321.686737 416,325.996906 416,331.313769 L416,380.372968 C416,385.689831 411.687791,390 406.368411,390 Z M357.293662,235.524454 L406.368411,235.524454 C411.687791,235.524454 416,239.834623 416,245.151486 L416,294.210686 C416,299.527549 411.687791,303.837718 406.368411,303.837718 L357.293662,303.837718 C351.974283,303.837718 347.662073,299.527549 347.662073,294.210686 L347.662073,245.151486 C347.662073,239.834623 351.974283,235.524454 357.293662,235.524454 Z" id="path-3"></path>
        <filter x="-4.8%" y="-5.0%" width="109.7%" height="110.8%" filterUnits="objectBoundingBox" id="filter-4">
            <feMorphology radius="1" operator="dilate" in="SourceAlpha" result="shadowSpreadOuter1"></feMorphology>
            <feOffset dx="0" dy="1" in="shadowSpreadOuter1" result="shadowOffsetOuter1"></feOffset>
            <feGaussianBlur stdDeviation="4" in="shadowOffsetOuter1" result="shadowBlurOuter1"></feGaussianBlur>
            <feColorMatrix values="0 0 0 0 0   0 0 0 0 0   0 0 0 0 0  0 0 0 0.13 0" type="matrix" in="shadowBlurOuter1"></feColorMatrix>
        </filter>
    </defs>
    <g id="Block-Usage" stroke="none" stroke-width="1" fill="none" fill-rule="evenodd">
        <g id="Rectangle">
            <use fill="#DA561E" xlink:href="#path-2"></use>
            <use fill="url(#linearGradient-1)" xlink:href="#path-2"></use>
        </g>
        <g id="plruskahuf-Path-2" fill-rule="nonzero">
            <use fill="black" fill-opacity="1" filter="url(#filter-4)" xlink:href="#path-3"></use>
            <use fill="#FFFFFF" xlink:href="#path-3"></use>
        </g>
    </g>
</svg>